<svg xmlns="http://www.w3.org/2000/svg" width="1060" height="862" viewBox="0 0 1060 862" style="background:#fff"><path d="M444.636 622.056v43.213" fill="none" stroke="#ddd"/><title>Gophish Dashboard</title><path d="M444.636 582.255v43.213" fill="none" stroke="#ddd"/><path d="M425.532 314.179h490.123" fill="none" stroke="#eee" stroke-width=".5"/><path d="M333.994 88.143c1.088 0 1.97 4.752 1.97 10.616v739.588c0 5.864-.882 10.616-1.97 10.616H85.806c-1.088 0-1.97-4.752-1.97-10.616V98.76c0-5.864.882-10.616 1.97-10.616h248.188z" fill="#f5f5f5" fill-rule="evenodd"/><path d="M-68 1h1210v64H-68V1" fill-opacity=".047" fill-rule="evenodd"/><path d="M1142 0v64H-63V0z" fill="#283f50" fill-rule="evenodd"/><rect rx="4.5" height="9" width="76" y="487.676" x="426.089" fill="#b3b3b3" fill-opacity=".7" fill-rule="evenodd"/><path d="M333.994 184.655c1.088 0 1.97.382 1.97.854v59.541c0 .472-.882.855-1.97.855H85.806c-1.088 0-1.97-.383-1.97-.855v-59.54c0-.473.882-.855 1.97-.855h248.188z" fill="#283f50" fill-rule="evenodd"/><rect rx="4.5" height="9" width="138" y="153.673" x="101.836" fill="#b3b3b3" fill-rule="evenodd"/><rect rx="4.5" height="31.128" width="51" y="17.486" x="947.049" fill="#16a085" fill-rule="evenodd"/><path d="M107.131 11.196L88.784 21.68v20.968l18.347 10.484 18.347-10.484V21.68l-18.347-10.484zm-.13 3.068l15.774 9.018V41.31L107 50.325 91.228 41.31V23.282l15.773-9.018z" fill="#fff"/><path d="M472.126 134.444l6.911 3.808-6.753 4.081z" transform="matrix(.07027 0 0 .16555 68.26 10.178)" fill="#fff" stroke="#fff" stroke-width="4" stroke-linecap="square"/><path d="M101.708 33.05v3.657-3.657z" fill="none" stroke="#fff" stroke-width=".9506891199999999"/><g stroke="#fff" transform="translate(2.291 -188) scale(.20968)"><circle transform="matrix(1.13346 0 0 1.13346 -46.21 890.208)" cx="496.078" cy="99.471" r="5.553" fill="#283f50" stroke-width="4" stroke-linecap="round" stroke-linejoin="round"/><path d="M516.102 1073.24a20.98 20.98 0 0 1-10.49 18.169 20.98 20.98 0 0 1-20.981 0 20.98 20.98 0 0 1-10.49-18.17" fill="#283f50" stroke-width="4.53384" stroke-linecap="square"/><path d="M516.164 1009.552v61.88-61.88z" fill="none" stroke-width="4.534"/><path d="M472.35 1049.784l9.521 12.33-5.745-2.01-3.777-10.32z" fill="#fff"/></g><text style="line-height:125%" x="132.862" y="38.371" font-weight="400" font-size="40" font-family="Sans" letter-spacing="0" word-spacing="0" fill="#fff"><tspan x="132.862" y="38.371"><tspan x="132.862" y="38.371" style="-inkscape-font-specification:'sans-serif Bold'" font-weight="700" font-size="20" font-family="sans-serif">gophish</tspan></tspan></text><rect x="610.011" y="28.092" width="51" height="8.613" rx="4.5" fill="#fff" fill-rule="evenodd"/><rect rx="4.5" height="8.613" width="51" y="28.092" x="696.854" fill="#fff" fill-rule="evenodd"/><rect x="778.873" y="28.092" width="51" height="8.613" rx="4.5" fill="#fff" fill-rule="evenodd"/><rect rx="4.5" height="8.613" width="51" y="28.092" x="851.243" fill="#fff" fill-rule="evenodd"/><rect x="883.692" y="487.938" width="51" height="8.613" rx="4.5" fill="#f39c12" fill-rule="evenodd"/><rect x="537.365" y="487.676" width="76" height="9" rx="4.5" fill="#b3b3b3" fill-opacity=".7" fill-rule="evenodd"/><text style="line-height:125%;-inkscape-font-specification:'sans-serif Bold'" x="468.325" y="430.522" transform="scale(.9096 1.09938)" font-weight="700" font-size="36.384" font-family="sans-serif" letter-spacing="0" word-spacing="0" fill="#283f5f" fill-opacity=".941"><tspan x="468.325" y="430.522" font-size="22.5">Details</tspan></text><text style="line-height:125%" x="468.325" y="144.681" transform="scale(.9096 1.09938)" font-weight="400" font-size="36.384" font-family="Sans" letter-spacing="0" word-spacing="0" fill="#283f5f" fill-opacity=".941"><tspan x="468.325" y="144.681" style="-inkscape-font-specification:'sans-serif Bold'" font-weight="700" font-size="22.5" font-family="sans-serif">Results for Campaign</tspan></text><rect x="101.836" y="210.08" width="138" height="9" rx="4.5" fill="#fff" fill-rule="evenodd"/><rect x="101.836" y="261.052" width="138" height="9" rx="4.5" fill="#b3b3b3" fill-rule="evenodd"/><rect rx="4.5" height="9" width="138" y="304.474" x="101.836" fill="#b3b3b3" fill-rule="evenodd"/><rect x="101.836" y="351.112" width="138" height="9" rx="4.5" fill="#b3b3b3" fill-rule="evenodd"/><rect rx="4.5" height="9" width="138" y="399.358" x="101.836" fill="#b3b3b3" fill-rule="evenodd"/><rect x="101.836" y="442.78" width="138" height="9" rx="4.5" fill="#b3b3b3" fill-rule="evenodd"/><path d="M469.036 348.271a43.518 43.518 0 0 0-43.519 43.519 43.518 43.518 0 0 0 43.519 43.518 43.518 43.518 0 0 0 43.518-43.518 43.518 43.518 0 0 0-43.518-43.519zm0 7.514a36.004 36.004 0 0 1 36.004 36.005 36.004 36.004 0 0 1-36.004 36.005 36.004 36.004 0 0 1-36.005-36.005 36.004 36.004 0 0 1 36.005-36.005zM606.26 348.271a43.518 43.518 0 0 0-43.52 43.519 43.518 43.518 0 0 0 43.52 43.518 43.518 43.518 0 0 0 43.518-43.518 43.518 43.518 0 0 0-43.519-43.519zm0 7.514a36.004 36.004 0 0 1 36.004 36.005 36.004 36.004 0 0 1-36.005 36.005 36.004 36.004 0 0 1-36.004-36.005 36.004 36.004 0 0 1 36.004-36.005zM750.667 348.271a43.518 43.518 0 0 0-43.519 43.519 43.518 43.518 0 0 0 43.519 43.518 43.518 43.518 0 0 0 43.518-43.518 43.518 43.518 0 0 0-43.518-43.519zm0 7.514a36.004 36.004 0 0 1 36.004 36.005 36.004 36.004 0 0 1-36.004 36.005 36.004 36.004 0 0 1-36.005-36.005 36.004 36.004 0 0 1 36.005-36.005zM890.5 348.271a43.518 43.518 0 0 0-43.519 43.519 43.518 43.518 0 0 0 43.519 43.518 43.518 43.518 0 0 0 43.518-43.518A43.518 43.518 0 0 0 890.5 348.27zm0 7.514a36.004 36.004 0 0 1 36.004 36.005 36.004 36.004 0 0 1-36.004 36.005 36.004 36.004 0 0 1-36.005-36.005 36.004 36.004 0 0 1 36.005-36.005z" fill="#ddd" stroke="#fff" stroke-width=".21"/><path d="M470.231 347.948a43.518 43.518 0 0 1 41.967 43.44 43.518 43.518 0 0 1-43.52 43.519 43.518 43.518 0 0 1-43.148-38.291h7.573a36.004 36.004 0 0 0 35.576 30.777 36.004 36.004 0 0 0 36.006-36.006 36.004 36.004 0 0 0-34.454-35.949v-7.49z" fill="#1abc9c" stroke="#fff" stroke-width=".21"/><path d="M608.049 348.25a43.518 43.518 0 0 1 41.966 43.44 43.518 43.518 0 0 1-41.966 43.464v-7.537a36.004 36.004 0 0 0 34.453-35.928 36.004 36.004 0 0 0-34.453-35.95v-7.49z" fill="#f9bf3b" stroke="#fff" stroke-width=".21"/><path d="M751.983 348.25a43.518 43.518 0 0 1 41.967 43.44 43.518 43.518 0 0 1-41.967 43.464v-7.537a36.004 36.004 0 0 0 34.453-35.928 36.004 36.004 0 0 0-34.453-35.95v-7.49z" fill="#f39c12" stroke="#fff" stroke-width=".21"/><path d="M892.3 348.45v7.49a36.004 36.004 0 0 1 33.795 29.217h7.603A43.518 43.518 0 0 0 892.3 348.45z" fill="#f05b4f" stroke="#fff" stroke-width=".21"/><rect rx="3.152" height="15.85" width="35.722" y="382.741" x="451.387" fill="#1abc9c" fill-rule="evenodd"/><rect x="589.693" y="382.741" width="35.722" height="15.85" rx="3.152" fill="#f9bf3b" fill-rule="evenodd"/><rect rx="3.152" height="15.85" width="35.722" y="382.741" x="734.432" fill="#f39c12" fill-rule="evenodd"/><rect x="874.346" y="382.741" width="35.722" height="15.85" rx="3.152" fill="#f05b4f" fill-rule="evenodd"/><path d="M425.532 268.345h490.123" fill="none" stroke="#ddd" stroke-width=".5" stroke-dasharray="1.5,.5"/><text style="line-height:125%" x="-191.377" y="123.832" font-weight="400" font-size="40" font-family="Sans" letter-spacing="0" word-spacing="0"/><path d="M425.532 165.202h490.123" fill="none" stroke="#eee" stroke-width=".5"/><circle cx="854.763" cy="268.386" r="2.913" fill="#f05b4f" stroke="#f05b4f" stroke-width=".302" stroke-dasharray=".90579045,.30193015" stroke-opacity=".444"/><circle r="2.913" cy="268.386" cx="778.373" fill="#f39c12" stroke="#f05b4f" stroke-width=".302" stroke-dasharray=".90579045,.30193015" stroke-opacity=".444"/><circle cx="547.595" cy="268.386" r="2.913" fill="#f9bf3b" stroke="#f05b4f" stroke-width=".302" stroke-dasharray=".90579045,.30193015" stroke-opacity=".444"/><circle r="2.913" cy="268.386" cx="535.131" fill="#f9bf3b" stroke="#f05b4f" stroke-width=".302" stroke-dasharray=".90579045,.30193015" stroke-opacity=".444"/><circle cx="431" cy="268.386" r="2.913" fill="#1abc9c" stroke="#f05b4f" stroke-width=".302" stroke-dasharray=".90579045,.30193015" stroke-opacity=".444"/><circle r="2.913" cy="268.386" cx="438.639" fill="#1abc9c" stroke="#f05b4f" stroke-width=".302" stroke-dasharray=".90579045,.30193015" stroke-opacity=".444"/><circle cx="446.278" cy="268.386" r="2.913" fill="#1abc9c" stroke="#f05b4f" stroke-width=".302" stroke-dasharray=".90579045,.30193015" stroke-opacity=".444"/><rect rx="4.5" height="9" width="76" y="487.676" x="653.356" fill="#b3b3b3" fill-opacity=".7" fill-rule="evenodd"/><rect x="773.897" y="487.676" width="76" height="9" rx="4.5" fill="#b3b3b3" fill-opacity=".7" fill-rule="evenodd"/><path d="M505.035 231.166a4.49 4.49 0 0 0-4.5 4.5v19.142a4.49 4.49 0 0 0 4.5 4.5h26.768l1.654 2.865 1.654 2.866 1.654-2.866 1.655-2.865h28.377a4.49 4.49 0 0 0 4.5-4.5v-19.142a4.49 4.49 0 0 0-4.5-4.5h-61.762z" fill="#fff" stroke="#ddd" stroke-width=".5"/><rect rx=".5" height="2.139" width="59.6" y="235.651" x="505.497" fill="#eee" fill-rule="evenodd"/><rect x="505.497" y="243.256" width="59.6" height="2.139" rx=".5" fill="#eee" fill-rule="evenodd"/><rect rx=".5" height="2.139" width="59.6" y="251.145" x="505.497" fill="#eee" fill-rule="evenodd"/><rect width="523.041" height="184.162" x="419.648" y="508.368" rx=".5" fill="none" stroke="#ddd" stroke-width=".56"/><path d="M425.532 479.343h490.123" fill="none" stroke="#eee" stroke-width=".5"/><rect x="512.778" y="524.128" width="104.165" height="9" rx="2.456" fill="#b3b3b3" fill-opacity=".7" fill-rule="evenodd"/><rect rx="4.5" height="9" width="190.855" y="545.734" x="426.089" fill="#eee" fill-rule="evenodd"/><circle cx="444.636" cy="581.118" r="14.783" fill="#5cb85c" stroke="#ddd" stroke-width=".5"/><circle r="14.783" cy="623.193" cx="444.636" fill="#f9bf3b" stroke="#ddd" stroke-width=".5"/><rect x="468.164" y="575.301" width="146.505" height="9" rx="3.454" fill="#eee" fill-rule="evenodd"/><rect rx="3.454" height="9" width="146.505" y="616.239" x="468.164" fill="#eee" fill-rule="evenodd"/><circle cx="444.636" cy="662.994" r="14.783" fill="#f39c12" stroke="#ddd" stroke-width=".5"/><rect x="468.164" y="656.04" width="146.505" height="9" rx="3.454" fill="#eee" fill-rule="evenodd"/><rect x="425.989" y="171.07" width="51" height="23.087" rx="4.5" fill="#bdc3c7" fill-rule="evenodd"/><rect rx="4.5" height="23.087" width="51" y="171.07" x="488.709" fill="#16a085" fill-rule="evenodd"/><rect x="551.429" y="171.07" width="51" height="23.087" rx="4.5" fill="#64a1d6" fill-rule="evenodd"/><rect rx="4.5" height="23.087" width="51" y="171.07" x="614.149" fill="#f05b4f" fill-rule="evenodd"/><rect x="676.869" y="171.07" width="51" height="23.087" rx="4.5" fill="#64a1d6" fill-rule="evenodd"/><text style="line-height:125%" x="435.02" y="340.196" font-weight="400" font-size="40" font-family="Sans" letter-spacing="0" word-spacing="0" fill="#333"><tspan x="435.02" y="340.196"><tspan x="435.02" y="340.196" style="-inkscape-font-specification:sans-serif" font-size="12.5" font-family="sans-serif">Email Sent</tspan></tspan></text><text style="line-height:125%" x="562.069" y="340.196" font-weight="400" font-size="40" font-family="Sans" letter-spacing="0" word-spacing="0" fill="#333"><tspan x="562.069" y="340.196"><tspan x="562.069" y="340.196" style="-inkscape-font-specification:sans-serif" font-size="12.5" font-family="sans-serif">Email Opened</tspan></tspan></text><text style="line-height:125%" x="712.436" y="340.196" font-weight="400" font-size="40" font-family="Sans" letter-spacing="0" word-spacing="0" fill="#333"><tspan x="712.436" y="340.196"><tspan x="712.436" y="340.196" style="-inkscape-font-specification:sans-serif" font-size="12.5" font-family="sans-serif">Clicked Link</tspan></tspan></text><text style="line-height:125%" x="842.701" y="340.196" font-weight="400" font-size="40" font-family="Sans" letter-spacing="0" word-spacing="0" fill="#333"><tspan x="842.701" y="340.196"><tspan x="842.701" y="340.196" style="-inkscape-font-specification:sans-serif" font-size="12.5" font-family="sans-serif">Submitted Data</tspan></tspan></text><path d="M451.738 574.273a.49.49 0 0 0-.375-.376c-.992-.212-1.768-.212-2.54-.212-3.179 0-5.085 1.7-6.508 3.941h-3.208c-.56 0-1.072.318-1.322.817l-1.52 3.042a.738.738 0 0 0 .661 1.069h2.929c-.182.394-.367.785-.554 1.16a.492.492 0 0 0 .092.57l1.958 1.959c.151.15.38.188.57.092.376-.188.767-.37 1.161-.551v2.929a.74.74 0 0 0 1.069.662l3.04-1.522c.501-.25.815-.763.815-1.32v-3.216c2.236-1.425 3.942-3.338 3.942-6.5.003-.776.003-1.552-.21-2.544zm-3.236 4.339a1.479 1.479 0 1 1 0-2.957 1.479 1.479 0 0 1 0 2.957zM449.762 664.887h-3.371l1.774 4.322a.59.59 0 0 1-.3.762l-1.563.681a.562.562 0 0 1-.741-.309l-1.686-4.103-2.754 2.832c-.367.378-.962.087-.962-.408V655.01c0-.521.633-.775.962-.409l9.038 9.296c.364.356.096.99-.397.99zM452.93 629.134c0 .838-.68 1.517-1.518 1.517h-13.15c-.839 0-1.518-.679-1.518-1.517v-8.323a1.517 1.517 0 0 1 .58-1.194c.789-.617 1.44-1.118 5.192-3.841.532-.388 1.587-1.321 2.32-1.31.734-.011 1.79.922 2.321 1.31 3.752 2.723 4.404 3.224 5.191 3.84a1.517 1.517 0 0 1 .581 1.195v8.323zm-2.076-6.215a.253.253 0 0 0-.359-.06c-.722.533-1.753 1.286-3.338 2.436-.532.388-1.587 1.321-2.32 1.31-.734.01-1.788-.921-2.321-1.31a523.452 523.452 0 0 1-3.338-2.437.253.253 0 0 0-.358.06l-.287.418a.253.253 0 0 0 .058.347 531.08 531.08 0 0 0 3.329 2.43c.64.467 1.787 1.511 2.917 1.504 1.129.007 2.274-1.036 2.916-1.504a530.68 530.68 0 0 0 3.33-2.43.253.253 0 0 0 .057-.347l-.287-.417z" fill="#fff"/><text y="532.779" x="428.587" style="line-height:125%" font-weight="400" font-size="40" font-family="Sans" letter-spacing="0" word-spacing="0" fill="#333"><tspan y="532.779" x="428.587" style="-inkscape-font-specification:sans-serif" font-size="12.5" font-family="sans-serif">Timeline For</tspan></text><text y="340.196" x="435.02" style="line-height:125%" font-weight="400" font-size="40" font-family="Sans" letter-spacing="0" word-spacing="0" fill="#333"><tspan y="340.196" x="435.02"><tspan style="-inkscape-font-specification:sans-serif" y="340.196" x="435.02" font-size="12.5" font-family="sans-serif">Email Sent</tspan></tspan></text><text y="340.196" x="562.069" style="line-height:125%" font-weight="400" font-size="40" font-family="Sans" letter-spacing="0" word-spacing="0" fill="#333"><tspan y="340.196" x="562.069"><tspan style="-inkscape-font-specification:sans-serif" y="340.196" x="562.069" font-size="12.5" font-family="sans-serif">Email Opened</tspan></tspan></text><text y="340.196" x="712.436" style="line-height:125%" font-weight="400" font-size="40" font-family="Sans" letter-spacing="0" word-spacing="0" fill="#333"><tspan y="340.196" x="712.436"><tspan style="-inkscape-font-specification:sans-serif" y="340.196" x="712.436" font-size="12.5" font-family="sans-serif">Clicked Link</tspan></tspan></text><text y="340.196" x="842.701" style="line-height:125%" font-weight="400" font-size="40" font-family="Sans" letter-spacing="0" word-spacing="0" fill="#333"><tspan y="340.196" x="842.701"><tspan style="-inkscape-font-specification:sans-serif" y="340.196" x="842.701" font-size="12.5" font-family="sans-serif">Submitted Data</tspan></tspan></text><text y="227.391" x="644.384" style="line-height:125%" font-weight="400" font-size="40" font-family="Sans" letter-spacing="0" word-spacing="0" fill="#333"><tspan y="227.391" x="644.384"><tspan style="-inkscape-font-specification:sans-serif" y="227.391" x="644.384" font-size="12.5" font-family="sans-serif">Campaign Timeline</tspan></tspan></text></svg>