<svg xmlns="http://www.w3.org/2000/svg" width="1060" height="862" viewBox="0 0 1060 862" style="background:#fff"><title>Gophish Dashboard</title><path d="M448.047 255.664H938.17" fill="none" stroke="#eee" stroke-width=".5"/><path d="M372.59 88.143c1.089 0 1.97 4.752 1.97 10.616v739.588c0 5.864-.881 10.616-1.97 10.616H124.404c-1.088 0-1.97-4.752-1.97-10.616V98.76c0-5.864.882-10.616 1.97-10.616h248.188z" fill="#f5f5f5" fill-rule="evenodd"/><path d="M-68 1h1210v64H-68V1" fill-opacity=".047" fill-rule="evenodd"/><path d="M1142 0v64H-63V0z" fill="#283f50" fill-rule="evenodd"/><rect rx="4.5" height="9" width="76" y="594.571" x="448.604" fill="#b3b3b3" fill-opacity=".7" fill-rule="evenodd"/><rect rx="4.5" height="9" width="76" y="635.571" x="448.604" fill="#b3b3b3" fill-opacity=".7" fill-rule="evenodd"/><rect rx="4.5" height="9" width="76" y="676.571" x="448.604" fill="#b3b3b3" fill-opacity=".7" fill-rule="evenodd"/><rect rx="4.5" height="9" width="76" y="717.571" x="448.604" fill="#b3b3b3" fill-opacity=".7" fill-rule="evenodd"/><rect rx="4.5" height="9" width="20.07" y="635.571" x="643.145" fill="#c9c9c9" fill-opacity=".8" fill-rule="evenodd"/><rect rx="4.5" height="9" width="20.07" y="594.571" x="643.145" fill="#c9c9c9" fill-opacity=".8" fill-rule="evenodd"/><rect rx="4.5" height="9" width="20.07" y="676.571" x="643.145" fill="#c9c9c9" fill-opacity=".8" fill-rule="evenodd"/><rect rx="4.5" height="9" width="20.07" y="717.571" x="643.145" fill="#c9c9c9" fill-opacity=".8" fill-rule="evenodd"/><rect rx="4.5" height="9" width="138" y="212.806" x="140.433" fill="#b3b3b3" fill-rule="evenodd"/><rect rx="4.5" height="31.128" width="51" y="17.486" x="947.049" fill="#16a085" fill-rule="evenodd"/><path d="M144.12 11.196L125.773 21.68v20.968l18.347 10.484 18.347-10.484V21.68L144.12 11.196zm-.13 3.068l15.773 9.018V41.31l-15.773 9.015-15.773-9.015V23.282l15.773-9.018z" fill="#fff"/><path d="M472.126 134.444l6.911 3.808-6.753 4.081z" transform="matrix(.07027 0 0 .16555 105.249 10.178)" fill="#fff" stroke="#fff" stroke-width="4" stroke-linecap="square"/><path d="M138.697 33.05v3.657-3.657z" fill="none" stroke="#fff" stroke-width=".9506891199999999"/><g stroke="#fff" transform="translate(39.28 -188) scale(.20968)"><circle transform="matrix(1.13346 0 0 1.13346 -46.21 890.208)" cx="496.078" cy="99.471" r="5.553" fill="#283f50" stroke-width="4" stroke-linecap="round" stroke-linejoin="round"/><path d="M516.102 1073.24a20.98 20.98 0 0 1-10.49 18.169 20.98 20.98 0 0 1-20.981 0 20.98 20.98 0 0 1-10.49-18.17" fill="#283f50" stroke-width="4.53384" stroke-linecap="square"/><path d="M516.164 1009.552v61.88-61.88z" fill="none" stroke-width="4.534"/><path d="M472.35 1049.784l9.521 12.33-5.745-2.01-3.777-10.32z" fill="#fff"/></g><text style="line-height:125%" x="169.851" y="38.371" font-weight="400" font-size="40" font-family="Sans" letter-spacing="0" word-spacing="0" fill="#fff"><tspan x="169.851" y="38.371"><tspan x="169.851" y="38.371" style="-inkscape-font-specification:'sans-serif Bold'" font-weight="700" font-size="20" font-family="sans-serif">gophish</tspan></tspan></text><rect x="610.011" y="28.092" width="51" height="8.613" rx="4.5" fill="#fff" fill-rule="evenodd"/><rect rx="4.5" height="8.613" width="51" y="28.092" x="696.854" fill="#fff" fill-rule="evenodd"/><rect x="778.873" y="28.092" width="51" height="8.613" rx="4.5" fill="#fff" fill-rule="evenodd"/><rect rx="4.5" height="8.613" width="51" y="28.092" x="851.243" fill="#fff" fill-rule="evenodd"/><rect x="686.566" y="635.571" width="20.07" height="9" rx="4.5" fill="#c9c9c9" fill-opacity=".8" fill-rule="evenodd"/><rect x="686.566" y="594.571" width="20.07" height="9" rx="4.5" fill="#c9c9c9" fill-opacity=".8" fill-rule="evenodd"/><rect x="686.566" y="676.571" width="20.07" height="9" rx="4.5" fill="#c9c9c9" fill-opacity=".8" fill-rule="evenodd"/><rect x="686.566" y="717.571" width="20.07" height="9" rx="4.5" fill="#c9c9c9" fill-opacity=".8" fill-rule="evenodd"/><rect rx="4.5" height="9" width="20.07" y="635.571" x="729.988" fill="#c9c9c9" fill-opacity=".8" fill-rule="evenodd"/><rect rx="4.5" height="9" width="20.07" y="594.571" x="729.988" fill="#c9c9c9" fill-opacity=".8" fill-rule="evenodd"/><rect rx="4.5" height="9" width="20.07" y="676.571" x="729.988" fill="#c9c9c9" fill-opacity=".8" fill-rule="evenodd"/><rect rx="4.5" height="9" width="20.07" y="717.571" x="729.988" fill="#c9c9c9" fill-opacity=".8" fill-rule="evenodd"/><rect x="770.193" y="635.571" width="20.07" height="9" rx="4.5" fill="#c9c9c9" fill-opacity=".8" fill-rule="evenodd"/><rect x="770.193" y="594.571" width="20.07" height="9" rx="4.5" fill="#c9c9c9" fill-opacity=".8" fill-rule="evenodd"/><rect x="770.193" y="676.571" width="20.07" height="9" rx="4.5" fill="#c9c9c9" fill-opacity=".8" fill-rule="evenodd"/><rect x="770.193" y="717.571" width="20.07" height="9" rx="4.5" fill="#c9c9c9" fill-opacity=".8" fill-rule="evenodd"/><rect x="808.41" y="594.833" width="51" height="8.613" rx="4.5" fill="#3fc55f" fill-opacity=".9" fill-rule="evenodd"/><rect x="545.096" y="594.571" width="76" height="9" rx="4.5" fill="#b3b3b3" fill-opacity=".7" fill-rule="evenodd"/><rect x="545.096" y="635.571" width="76" height="9" rx="4.5" fill="#b3b3b3" fill-opacity=".7" fill-rule="evenodd"/><rect x="545.096" y="676.571" width="76" height="9" rx="4.5" fill="#b3b3b3" fill-opacity=".7" fill-rule="evenodd"/><rect x="545.096" y="717.571" width="76" height="9" rx="4.5" fill="#b3b3b3" fill-opacity=".7" fill-rule="evenodd"/><rect rx="4.5" height="8.613" width="51" y="635.038" x="808.41" fill="#3fc55f" fill-opacity=".9" fill-rule="evenodd"/><rect x="808.41" y="676.852" width="51" height="8.613" rx="4.5" fill="#3fc55f" fill-opacity=".9" fill-rule="evenodd"/><rect rx="4.5" height="8.613" width="51" y="718.665" x="808.41" fill="#3fc55f" fill-opacity=".9" fill-rule="evenodd"/><rect rx="2.797" height="18.262" width="31.701" y="590.008" x="885.604" fill="#16a085" fill-rule="evenodd"/><rect x="929.025" y="590.008" width="31.701" height="18.262" rx="2.797" fill="#c44133" fill-rule="evenodd"/><rect x="885.604" y="630.214" width="31.701" height="18.262" rx="2.797" fill="#16a085" fill-rule="evenodd"/><rect rx="2.797" height="18.262" width="31.701" y="630.214" x="929.025" fill="#c44133" fill-rule="evenodd"/><rect rx="2.797" height="18.262" width="31.701" y="672.027" x="885.604" fill="#16a085" fill-rule="evenodd"/><rect x="929.025" y="672.027" width="31.701" height="18.262" rx="2.797" fill="#c44133" fill-rule="evenodd"/><rect x="885.604" y="712.232" width="31.701" height="18.262" rx="2.797" fill="#16a085" fill-rule="evenodd"/><rect rx="2.797" height="18.262" width="31.701" y="712.232" x="929.025" fill="#c44133" fill-rule="evenodd"/><rect x="449.607" y="533.721" width="51" height="31.128" rx="4.5" fill="#16a085" fill-rule="evenodd"/><text style="line-height:125%;-inkscape-font-specification:'sans-serif Bold'" x="493.078" y="467.967" transform="scale(.9096 1.09938)" font-weight="700" font-size="36.384" font-family="sans-serif" letter-spacing="0" word-spacing="0" fill="#283f5f" fill-opacity=".941"><tspan x="493.078" y="467.967"><tspan x="493.078" y="467.967" style="-inkscape-font-specification:'sans-serif Bold'" font-size="22.5">Recent Campaigns</tspan></tspan></text><text style="line-height:125%" x="493.078" y="144.681" transform="scale(.9096 1.09938)" font-weight="400" font-size="36.384" font-family="Sans" letter-spacing="0" word-spacing="0" fill="#283f5f" fill-opacity=".941"><tspan x="493.078" y="144.681"><tspan x="493.078" y="144.681" style="-inkscape-font-specification:'sans-serif Bold'" font-weight="700" font-size="22.5" font-family="sans-serif">Dashboard</tspan></tspan></text><path d="M372.59 118.699c1.089 0 1.97.382 1.97.854v59.54c0 .473-.881.856-1.97.856H124.404c-1.088 0-1.97-.383-1.97-.855v-59.54c0-.473.882-.855 1.97-.855h248.188z" fill="#283f50" fill-rule="evenodd"/><rect x="140.433" y="145.261" width="138" height="9" rx="4.5" fill="#fff" fill-rule="evenodd"/><rect x="140.433" y="261.052" width="138" height="9" rx="4.5" fill="#b3b3b3" fill-rule="evenodd"/><rect rx="4.5" height="9" width="138" y="304.474" x="140.433" fill="#b3b3b3" fill-rule="evenodd"/><rect x="140.433" y="351.112" width="138" height="9" rx="4.5" fill="#b3b3b3" fill-rule="evenodd"/><rect rx="4.5" height="9" width="138" y="399.358" x="140.433" fill="#b3b3b3" fill-rule="evenodd"/><rect x="140.433" y="442.78" width="138" height="9" rx="4.5" fill="#b3b3b3" fill-rule="evenodd"/><path d="M491.55 352.1a43.518 43.518 0 0 0-43.518 43.519 43.518 43.518 0 0 0 43.519 43.518 43.518 43.518 0 0 0 43.518-43.518A43.518 43.518 0 0 0 491.55 352.1zm0 7.514a36.004 36.004 0 0 1 36.005 36.005 36.004 36.004 0 0 1-36.004 36.005 36.004 36.004 0 0 1-36.005-36.005 36.004 36.004 0 0 1 36.005-36.005zM628.774 352.1a43.518 43.518 0 0 0-43.518 43.519 43.518 43.518 0 0 0 43.518 43.518 43.518 43.518 0 0 0 43.519-43.518 43.518 43.518 0 0 0-43.519-43.519zm0 7.514a36.004 36.004 0 0 1 36.004 36.005 36.004 36.004 0 0 1-36.004 36.005 36.004 36.004 0 0 1-36.004-36.005 36.004 36.004 0 0 1 36.004-36.005zM773.182 352.1a43.518 43.518 0 0 0-43.519 43.519 43.518 43.518 0 0 0 43.519 43.518 43.518 43.518 0 0 0 43.518-43.518 43.518 43.518 0 0 0-43.518-43.519zm0 7.514a36.004 36.004 0 0 1 36.004 36.005 36.004 36.004 0 0 1-36.004 36.005 36.004 36.004 0 0 1-36.005-36.005 36.004 36.004 0 0 1 36.005-36.005zM913.015 352.1a43.518 43.518 0 0 0-43.519 43.519 43.518 43.518 0 0 0 43.519 43.518 43.518 43.518 0 0 0 43.518-43.518 43.518 43.518 0 0 0-43.518-43.519zm0 7.514a36.004 36.004 0 0 1 36.004 36.005 36.004 36.004 0 0 1-36.004 36.005 36.004 36.004 0 0 1-36.005-36.005 36.004 36.004 0 0 1 36.005-36.005z" fill="#ddd" stroke="#fff" stroke-width=".21"/><rect x="448.604" y="752.157" width="76" height="9" rx="4.5" fill="#b3b3b3" fill-opacity=".7" fill-rule="evenodd"/><rect x="448.604" y="793.157" width="76" height="9" rx="4.5" fill="#b3b3b3" fill-opacity=".7" fill-rule="evenodd"/><rect x="643.145" y="752.157" width="20.07" height="9" rx="4.5" fill="#c9c9c9" fill-opacity=".8" fill-rule="evenodd"/><rect x="643.145" y="793.157" width="20.07" height="9" rx="4.5" fill="#c9c9c9" fill-opacity=".8" fill-rule="evenodd"/><rect rx="4.5" height="9" width="20.07" y="752.157" x="686.566" fill="#c9c9c9" fill-opacity=".8" fill-rule="evenodd"/><rect rx="4.5" height="9" width="20.07" y="793.157" x="686.566" fill="#c9c9c9" fill-opacity=".8" fill-rule="evenodd"/><rect x="729.988" y="752.157" width="20.07" height="9" rx="4.5" fill="#c9c9c9" fill-opacity=".8" fill-rule="evenodd"/><rect x="729.988" y="793.157" width="20.07" height="9" rx="4.5" fill="#c9c9c9" fill-opacity=".8" fill-rule="evenodd"/><rect rx="4.5" height="9" width="20.07" y="752.157" x="770.193" fill="#c9c9c9" fill-opacity=".8" fill-rule="evenodd"/><rect rx="4.5" height="9" width="20.07" y="793.157" x="770.193" fill="#c9c9c9" fill-opacity=".8" fill-rule="evenodd"/><rect rx="4.5" height="9" width="76" y="752.157" x="545.096" fill="#b3b3b3" fill-opacity=".7" fill-rule="evenodd"/><rect rx="4.5" height="9" width="76" y="793.157" x="545.096" fill="#b3b3b3" fill-opacity=".7" fill-rule="evenodd"/><rect rx="4.5" height="8.613" width="51" y="752.438" x="808.41" fill="#3fc55f" fill-opacity=".9" fill-rule="evenodd"/><rect x="808.41" y="794.251" width="51" height="8.613" rx="4.5" fill="#3fc55f" fill-opacity=".9" fill-rule="evenodd"/><rect x="885.604" y="747.613" width="31.701" height="18.262" rx="2.797" fill="#16a085" fill-rule="evenodd"/><rect rx="2.797" height="18.262" width="31.701" y="747.613" x="929.025" fill="#c44133" fill-rule="evenodd"/><rect rx="2.797" height="18.262" width="31.701" y="787.818" x="885.604" fill="#16a085" fill-rule="evenodd"/><rect x="929.025" y="787.818" width="31.701" height="18.262" rx="2.797" fill="#c44133" fill-rule="evenodd"/><path d="M492.746 351.777a43.518 43.518 0 0 1 41.967 43.44 43.518 43.518 0 0 1-43.52 43.519 43.518 43.518 0 0 1-43.148-38.291h7.572a36.004 36.004 0 0 0 35.577 30.777 36.004 36.004 0 0 0 36.005-36.006 36.004 36.004 0 0 0-34.453-35.95v-7.49z" fill="#1abc9c" stroke="#fff" stroke-width=".21"/><path d="M630.563 352.079a43.518 43.518 0 0 1 41.967 43.439 43.518 43.518 0 0 1-41.967 43.465v-7.537a36.004 36.004 0 0 0 34.454-35.928 36.004 36.004 0 0 0-34.454-35.95v-7.49z" fill="#f9bf3b" stroke="#fff" stroke-width=".21"/><path d="M774.498 352.079a43.518 43.518 0 0 1 41.967 43.439 43.518 43.518 0 0 1-41.967 43.465v-7.537a36.004 36.004 0 0 0 34.453-35.928 36.004 36.004 0 0 0-34.453-35.95v-7.49z" fill="#f39c12" stroke="#fff" stroke-width=".21"/><path d="M914.815 352.279v7.49a36.004 36.004 0 0 1 33.795 29.217h7.603a43.518 43.518 0 0 0-41.398-36.707z" fill="#f05b4f" stroke="#fff" stroke-width=".21"/><rect rx="3.152" height="15.85" width="35.722" y="386.57" x="473.902" fill="#1abc9c" fill-rule="evenodd"/><rect x="612.208" y="386.57" width="35.722" height="15.85" rx="3.152" fill="#f9bf3b" fill-rule="evenodd"/><rect rx="3.152" height="15.85" width="35.722" y="386.57" x="756.947" fill="#f39c12" fill-rule="evenodd"/><rect x="896.861" y="386.57" width="35.722" height="15.85" rx="3.152" fill="#f05b4f" fill-rule="evenodd"/><path d="M448.047 208.693v98.365M448.047 307.058H938.17" fill="none" stroke="#ddd"/><path d="M448.047 209.83H938.17" fill="none" stroke="#eee" stroke-width=".5"/><path d="M447.853 281.77s32.918-53.951 92.613-53.951c59.696 0 82.382 58.065 120.321 58.234 38.255.17 73.089-58.713 136.095-58.713 63.005 0 135.377 79.954 135.377 79.954" fill="none" stroke="#f05b4f"/><path d="M448.59 294.09l.012-12.367 3.005-4.102c23.397-31.93 58.344-50.404 92.494-48.895 12.75.564 22.74 3.187 34.969 9.181 11.376 5.577 16.195 9.02 42.853 30.629 11.68 9.468 20.954 14.753 29.818 16.995 3.808.963 5.79 1.12 11.181.89 11.546-.491 21.088-4.613 39.531-17.072 5.942-4.014 15.42-10.42 21.062-14.236 25.284-17.097 43.105-24.444 64.51-26.596 25.87-2.601 55.022 7.713 88.876 31.446 14.913 10.454 33.112 25.886 46.724 39.619l6.814 6.874H448.58l.011-12.367z" fill="#f05b4f" fill-opacity=".392" stroke="#f05b4f" stroke-width=".284" stroke-opacity=".444"/><text y="344.334" x="457.668" style="line-height:125%" font-weight="400" font-size="40" font-family="Sans" letter-spacing="0" word-spacing="0" fill="#333"><tspan y="344.334" x="457.668"><tspan style="-inkscape-font-specification:sans-serif" y="344.334" x="457.668" font-size="12.5" font-family="sans-serif">Email Sent</tspan></tspan></text><text y="344.334" x="584.717" style="line-height:125%" font-weight="400" font-size="40" font-family="Sans" letter-spacing="0" word-spacing="0" fill="#333"><tspan y="344.334" x="584.717"><tspan style="-inkscape-font-specification:sans-serif" y="344.334" x="584.717" font-size="12.5" font-family="sans-serif">Email Opened</tspan></tspan></text><text y="344.334" x="735.084" style="line-height:125%" font-weight="400" font-size="40" font-family="Sans" letter-spacing="0" word-spacing="0" fill="#333"><tspan y="344.334" x="735.084"><tspan style="-inkscape-font-specification:sans-serif" y="344.334" x="735.084" font-size="12.5" font-family="sans-serif">Clicked Link</tspan></tspan></text><text y="344.334" x="865.349" style="line-height:125%" font-weight="400" font-size="40" font-family="Sans" letter-spacing="0" word-spacing="0" fill="#333"><tspan y="344.334" x="865.349"><tspan style="-inkscape-font-specification:sans-serif" y="344.334" x="865.349" font-size="12.5" font-family="sans-serif">Submitted Data</tspan></tspan></text></svg>