<?xml version="1.0" encoding="utf-8"?>
<svg version="1.1" xmlns="http://www.w3.org/2000/svg" x="0px" y="0px" viewBox="0 0 71 76.3" style="enable-background:new 0 0 71 76.3;" xml:space="preserve">
<style type="text/css">.st0{fill:white;}</style>
<g transform="translate(-241.11756,-377.8123)">
<path class="st0" d="M247.8,451.8c-0.6-1.3-1.4-3.1-1.8-4l-0.6-1.7l-2,2.2l-2,2.2 l-0.2-4.2c-0.3-6,0.2-12.2,1.2-16.6c2.3-9.8,9.5-18.7,18.8-23.4l2.1-1l-0.5-1.5c-0.3-0.8-0.6-2.5-0.7-3.6l-0.2-2.1l-2.1-0.2 c-3.2-0.3-4.9-1.2-6-3.5c-0.6-1.2-0.6-1.4-0.4-4.6c0.2-4.2,0.5-5.1,1.8-6.5c1.6-1.8,2.7-2.1,6.7-1.9c2.9,0.2,3.5,0.3,4.8,0.9 c0.8,0.4,1.5,0.8,1.6,0.8c0.1,0,1-1.1,2.1-2.6l1.9-2.7l1.2,0.7c0.7,0.4,1.5,0.9,1.9,1.1l0.7,0.4l-0.6,1.5c-0.3,0.8-0.7,2.2-0.8,2.9 l-0.2,1.4l1.7,0.2c6.1,0.6,10.7,4.3,12.4,9.9c0.5,1.8,0.5,5.3,0,7c-0.5,1.6-0.5,1.7-0.1,1.7c0.7,0,5.4,2.3,7.3,3.5 c3.7,2.4,8,6.6,10.4,10.2c4.5,6.7,6.4,14,5.6,22c-0.4,4.8-1.3,8.6-2.9,12.3l-0.6,1.4l-2.5,0l-2.5,0l1.2-2.4 c1.3-2.6,2.3-6.2,2.8-9.4c0.3-2.2,0.4-8.2,0.1-9.3l-0.2-0.7l-1.3,1.4c-3.2,3.5-7.9,4.5-14.2,2.8c-5.4-1.4-7.6-1.7-12.7-1.7 c-3.9,0-5.2,0.1-7.3,0.6c-5.8,1.3-9.9,3.2-15.6,7.3c-2.1,1.5-3.8,2.7-3.9,2.7c-0.1,0,0.2-1,0.6-2.3c0.4-1.3,1.1-3.4,1.5-4.8 l0.8-2.5l-0.9,0.9c-0.5,0.5-1.9,1.9-3.1,3.2l-2.1,2.3l0.5,1.9c0.6,2.5,2,5.6,3.5,7.9c0.6,1,1.1,1.8,1.1,1.9s-1.2,0.1-2.6,0.1h-2.6 L247.8,451.8L247.8,451.8z M256.6,427.6c4.8-5.1,8.7-9.2,8.8-9.2c0.1,0.1-0.4,1.6-0.9,3.3c-3.3,10.4-4,12.4-3.9,12.5 c0,0,1.2-0.4,2.5-0.9c8.5-3.7,18.4-4.2,28.9-1.4c4.7,1.2,6.5,1.2,8.8,0c1.3-0.7,1.8-1.1,2.4-2.1c1.1-1.7,1.2-4.1,0.5-6.3 c-1.7-4.8-8.3-11-14.5-13.7c-3.2-1.4-3.4-1.4-4.1-0.7l-0.6,0.6l2.6,3.2c1.4,1.7,2.9,3.6,3.1,4.1c0.6,1.2,0.7,3.1,0.1,4.3 c-0.8,1.7-3.2,2.9-5.1,2.5c-0.8-0.2-1.1-0.1-1.9,0.5c-2.2,1.6-4.6,1.2-6.6-1.2c-1.6-1.8-2-2.7-2.1-4.5c0-0.9-0.3-2-0.5-2.4 c-0.3-0.6-0.4-1.3-0.4-2.2l0.1-1.4l-1.3-0.3c-1.8-0.5-3.9-1.5-5.1-2.4c-0.6-0.4-1.1-0.8-1.3-0.8s-1.5,0.6-2.9,1.3 c-9.7,5-16,14.3-17,24.8c-0.1,1-0.2,2.3-0.3,2.8l-0.1,0.9l1.1-1.1C247.4,437.3,251.8,432.7,256.6,427.6L256.6,427.6z M282.5,420.2 c0.9-0.7,1.7-1.3,1.9-1.3c0.1,0,0.4,0.3,0.7,0.7c0.5,0.8,1.4,0.8,1.8,0.1c0.3-0.5,0.3-0.6-5.6-7.8c-3.5-4.3-4.2-5-4.7-5 c-1.2,0.1-0.9,1,1,3.3l1.8,2.2l-1,0.8c-1.1,1-1.2,1.2-0.5,1.8c0.5,0.5,0.6,0.4,1.6-0.3l1.1-0.7l0.7,0.6c0.4,0.3,0.6,0.8,0.6,0.9 c0,0.2-0.8,0.9-1.7,1.7c-0.9,0.7-1.6,1.5-1.6,1.7c0,0.3,0.5,1.1,1.4,2.2C280.3,421.7,280.8,421.5,282.5,420.2L282.5,420.2z  M272.2,406c0.6-1.8,2.6-3.2,4.6-3.2c1.1,0,2.7,0.9,3.8,2.1l1,1.2l0.9-1.1c2.5-2.8,2.8-6.7,0.8-10.1c-1.5-2.5-4.3-4-8.2-4.4 c-2.1-0.2-2.6-0.4-3.7-1.5l-0.8-0.8l-0.4,0.6c-0.8,1.2-2.5,5.1-3,6.6c-0.7,2.3-0.4,5.9,0.5,7.7c0.9,1.7,3.3,4,4,3.7 C271.8,406.9,272,406.5,272.2,406L272.2,406z M263.3,392.4c0.2-0.5,0.7-1.8,1.2-2.8c0.5-1,0.9-2,0.9-2.3c0-0.9-1-1.3-3.7-1.5 c-2.4-0.2-2.6-0.1-3.1,0.4c-0.4,0.4-0.6,0.9-0.6,1.6c0,0.6-0.1,1.7-0.2,2.6c-0.2,2.1,0.1,2.5,2.2,2.8 C263.1,393.4,263,393.4,263.3,392.4z M260.2,390c0-1.7,0.2-1.9,1.6-1.9h1.3v1.4v1.4h-1.4h-1.4V390z M266.5,448.3 c-0.6-0.6-0.8-1-0.8-2c0-1.9,1.1-3,2.9-3c1.7,0,2.9,1.2,2.9,2.9c0,1.8-1.1,2.8-3,2.9C267.5,449.1,267.1,448.9,266.5,448.3 L266.5,448.3z M285.8,448.6c-2.3-1.8-1.1-5.3,1.8-5.3c1.8,0,2.8,1.1,2.9,3c0,1.1-0.1,1.4-0.8,2s-1,0.8-2,0.8 C286.8,449.1,286.2,448.9,285.8,448.6L285.8,448.6z"/>
</g>
</svg>
